# xmcd
#
# Track frame offsets: 
#        150
#        18162
#        35497
#        53035
#        67730
#        80412
#        96562
#        108310
#        128480
#        146455
#        163110
#        176760
#
# Disc length: 2528 seconds
#
# Revision: 0
# Processed by: cddbd v1.5.2PL0 Copyright (c) Steve Scherf et al.
# Submitted via: ExactAudioCopy v0.95a3
#
DISCID=9609de0c
DTITLE=The Untouchables - Hats On Fire
DYEAR=1993
DGENRE=Blues
TTITLE0=Hats On Fire
TTITLE1=Dancing With The Ladies
TTITLE2=How Could You Leave Me
TTITLE3=Forever Girl
TTITLE4=Who Shot The Lala
TTITLE5=Baby Don't Talk
TTITLE6=Forbidden Touch
TTITLE7=Rhythm Of The Blues
TTITLE8=Chinese Reggae
TTITLE9=You Can Call Me
TTITLE10=Under The Boardwalk
TTITLE11=Wo is die Mama
EXTD=
EXTT0=
EXTT1=
EXTT2=
EXTT3=
EXTT4=
EXTT5=
EXTT6=
EXTT7=
EXTT8=
EXTT9=
EXTT10=
EXTT11=
PLAYORDER=
